# xmcd
#
# Track frame offsets:
#        150
#        25645
#        49460
#        69865
#        96870
#        126575
#        141930
#        172842
#        217417
#        252320
#        277815
#        302180
#
# Disc length: 4372 seconds
#
# Revision: 3
# Processed by: cddbd v1.5.1PL0 Copyright (c) Steve Scherf et al.
# Submitted via: ExactAudioCopy v0.95a5
#
DISCID=b311120c
DTITLE=Various Artist - Blue Break Beats Volume 2
DYEAR=1900
DGENRE=Jazz
TTITLE0=Donald Byrd - Street Lady
TTITLE1=Bobbi Humphrey - Jasper Country man
TTITLE2=Eddie Henderson - Kumquat Kids
TTITLE3=Gene Harris - Higga Boom
TTITLE4=Reuben Wilson - Orange Peel
TTITLE5=Jimmy McGriff - The Worm
TTITLE6=Lou Donaldson - The Caterpillar
TTITLE7=Grant Green - Ain't It Funky Now
TTITLE8=Bobby Hutcherson - Ummh
TTITLE9=Blue Mitchell - Good Humour Man
TTITLE10=Donald Byrd - Beale Street
TTITLE11=Gerald Wilson - Viva Tirado
EXTD=ID3G:   8
EXTT0=
EXTT1=
EXTT2=
EXTT3=
EXTT4=
EXTT5=
EXTT6=
EXTT7=
EXTT8=
EXTT9=
EXTT10=
EXTT11=
PLAYORDER=
